<?xml version="1.0" encoding="UTF-8"?>
<svg width="969px" height="616px" viewBox="0 0 969 616" version="1.1" xmlns="http://www.w3.org/2000/svg" xmlns:xlink="http://www.w3.org/1999/xlink">
    <title>DittoBlog</title>
    <g id="Central+Peripheral-Basic" stroke="none" stroke-width="1" fill="none" fill-rule="evenodd">
        <path d="M19.229139,-7.76880231e-16 L949.770861,7.76880231e-16 C956.457252,-4.51389787e-16 958.881898,0.696192084 961.326343,2.00349528 C963.770787,3.31079847 965.689202,5.22921278 966.996505,7.67365722 C968.303808,10.1181017 969,12.5427485 969,19.229139 L969,596.770861 C969,603.457252 968.303808,605.881898 966.996505,608.326343 C965.689202,610.770787 963.770787,612.689202 961.326343,613.996505 C958.881898,615.303808 956.457252,616 949.770861,616 L19.229139,616 C12.5427485,616 10.1181017,615.303808 7.67365722,613.996505 C5.22921278,612.689202 3.31079847,610.770787 2.00349528,608.326343 C0.696192084,605.881898 3.00926524e-16,603.457252 -5.17920154e-16,596.770861 L5.17920154e-16,19.229139 C-3.00926524e-16,12.5427485 0.696192084,10.1181017 2.00349528,7.67365722 C3.31079847,5.22921278 5.22921278,3.31079847 7.67365722,2.00349528 C10.1181017,0.696192084 12.5427485,4.51389787e-16 19.229139,-7.76880231e-16 Z" id="Rectangle" fill="#FFFFFF"></path>
        <path id="Line" d="M466,272 L500,289 L466,306 L466,292 L391,292 L391,306 L357,289 L391,272 L391,286 L466,286 L466,272 Z" fill="#000000" fill-rule="nonzero"></path>
        <g id="noun_Smartphone_3398094" transform="translate(97.000000, 52.000000)" fill="#000000">
            <path d="M21.0451613,0 L211.954839,0 C223.980645,0 233,9.00952381 233,21.0222222 L233,451.977778 C233,463.990476 223.980645,473 211.954839,473 L21.0451613,473 C9.01935484,473 0,463.990476 0,451.977778 L0,21.0222222 C0,9.00952381 9.01935484,0 21.0451613,0 Z M117.251613,423.447619 C127.774194,423.447619 136.793548,432.457143 136.793548,442.968254 C136.793548,453.479365 127.774194,462.488889 117.251613,462.488889 C105.225806,462.488889 96.2064516,453.479365 96.2064516,442.968254 C96.2064516,432.457143 105.225806,423.447619 117.251613,423.447619 Z M9.01935484,45.047619 L223.980645,45.047619 L223.980645,409.933333 L9.01935484,409.933333 L9.01935484,45.047619 Z M93.2,16.5174603 L139.8,16.5174603 C147.316129,16.5174603 147.316129,28.5301587 139.8,28.5301587 L93.2,28.5301587 C85.683871,28.5301587 85.683871,16.5174603 93.2,16.5174603 Z" id="Shape"></path>
        </g>
        <text id="Central" font-family="HelveticaNeue-Bold, Helvetica Neue" font-size="36" font-weight="bold" fill="#000000">
            <tspan x="151.342" y="569">Central</tspan>
        </text>
        <text id="Peripheral" font-family="HelveticaNeue-Bold, Helvetica Neue" font-size="36" font-weight="bold" fill="#000000">
            <tspan x="624.034" y="517">Peripheral</tspan>
        </text>
        <g id="noun_Headphones_1211259" transform="translate(534.000000, 109.000000)" fill="#000000" fill-rule="nonzero">
            <g id="Group">
                <path d="M103.781624,232.644948 C102.274651,223.975914 94.3630478,218.322196 85.6979582,219.45294 L85.6979582,219.45294 C81.1770418,220.206769 77.7863546,224.729743 78.5398406,229.252717 L97.376992,345.719306 C98.1304781,350.24228 102.651394,353.634511 107.172311,352.880682 C115.8374,351.373024 121.488546,343.457819 120.358317,334.788785 L103.781624,232.644948 Z" id="Path"></path>
                <path d="M270.678785,219.45294 C262.013695,217.945282 254.102092,223.975914 252.59512,232.644948 L236.018426,334.788785 C234.511454,343.457819 240.539343,351.373024 249.204432,352.880682 C253.725349,353.634511 258.246265,350.619195 258.999751,345.719306 L277.836902,229.252717 C278.590388,224.729743 275.576444,220.206769 270.678785,219.45294 Z" id="Path"></path>
                <path d="M355.822709,187.79212 C355.822709,84.5175395 275.953187,0.465600296 178,0.465600296 C80.0468127,0.465600296 0.177290837,84.5175395 0.177290837,187.79212 C0.177290837,211.16082 4.32146414,233.775692 11.8563247,254.882905 C4.69820717,267.321084 1.30751992,282.020751 3.94472112,297.097332 L5.0749502,305.012537 C10.7260956,339.688673 43.125996,363.057374 77.7863546,357.780571 L77.7863546,357.780571 C83.814243,356.649827 87.5816733,351.373024 86.8281873,345.342391 L68.7445219,233.398777 C67.6142928,227.368145 62.3398904,223.599 56.312002,224.352829 C48.7771414,225.483572 41.9957669,228.121974 35.9678785,231.514205 C32.2004482,217.568367 30.3167331,202.868701 30.3167331,187.79212 C30.3167331,143.316206 48.0236554,102.986351 75.9026394,74.3408473 C79.6700697,77.7330781 84.5677291,79.6176507 89.4653884,79.6176507 C94.7397908,79.6176507 99.6374502,77.7330781 103.40488,73.9639328 C123.372261,53.9874629 149.744273,45.6953434 176.869771,45.6953434 C202.488297,45.6953434 227.353337,52.8567194 246.943974,70.5717021 C254.855578,77.7330781 266.911355,77.3561635 274.446215,69.817873 C305.339143,98.463377 324.553038,140.677804 324.553038,187.79212 C324.553038,202.491786 322.669323,217.191453 318.901892,231.13729 C312.874004,227.745059 306.092629,225.483572 298.934512,224.352829 C292.906624,223.222085 287.255478,227.368145 286.501992,233.398777 L268.418327,345.342391 C267.288098,351.373024 271.432271,357.026742 277.460159,357.780571 C312.120518,363.434289 344.520418,339.688673 350.171564,305.012537 L351.301793,297.097332 C353.938994,281.643836 350.548307,266.567255 343.013446,254.129076 C351.678536,233.021863 355.822709,210.783906 355.822709,187.79212 Z" id="Path"></path>
            </g>
        </g>
    </g>
</svg>