<?xml version="1.0" encoding="UTF-8"?>
<svg width="963px" height="782px" viewBox="0 0 963 782" version="1.1" xmlns="http://www.w3.org/2000/svg" xmlns:xlink="http://www.w3.org/1999/xlink">
    <title>Group 2</title>
    <g id="Central+Peripheral+Services" stroke="none" stroke-width="1" fill="none" fill-rule="evenodd">
        <g id="Group-2">
            <path d="M19.229139,-7.76880231e-16 L943.770861,7.76880231e-16 C950.457252,-4.51389787e-16 952.881898,0.696192084 955.326343,2.00349528 C957.770787,3.31079847 959.689202,5.22921278 960.996505,7.67365722 C962.303808,10.1181017 963,12.5427485 963,19.229139 L963,762.770861 C963,769.457252 962.303808,771.881898 960.996505,774.326343 C959.689202,776.770787 957.770787,778.689202 955.326343,779.996505 C952.881898,781.303808 950.457252,782 943.770861,782 L19.229139,782 C12.5427485,782 10.1181017,781.303808 7.67365722,779.996505 C5.22921278,778.689202 3.31079847,776.770787 2.00349528,774.326343 C0.696192084,771.881898 3.00926524e-16,769.457252 -5.17920154e-16,762.770861 L5.17920154e-16,19.229139 C-3.00926524e-16,12.5427485 0.696192084,10.1181017 2.00349528,7.67365722 C3.31079847,5.22921278 5.22921278,3.31079847 7.67365722,2.00349528 C10.1181017,0.696192084 12.5427485,4.51389787e-16 19.229139,-7.76880231e-16 Z" id="Rectangle" fill="#FFFFFF"></path>
            <path id="Line" d="M454,273 L488,290 L454,307 L454,293 L354,293 L354,307 L320,290 L354,273 L354,287 L454,287 L454,273 Z" fill="#000000" fill-rule="nonzero"></path>
            <g id="noun_Smartphone_3398094" transform="translate(93.000000, 67.000000)" fill="#000000">
                <path d="M18.516129,0 L186.483871,0 C197.064516,0 205,7.92380952 205,18.4888889 L205,397.511111 C205,408.07619 197.064516,416 186.483871,416 L18.516129,416 C7.93548387,416 0,408.07619 0,397.511111 L0,18.4888889 C0,7.92380952 7.93548387,0 18.516129,0 Z M103.16129,372.419048 C112.419355,372.419048 120.354839,380.342857 120.354839,389.587302 C120.354839,398.831746 112.419355,406.755556 103.16129,406.755556 C92.5806452,406.755556 84.6451613,398.831746 84.6451613,389.587302 C84.6451613,380.342857 92.5806452,372.419048 103.16129,372.419048 Z M7.93548387,39.6190476 L197.064516,39.6190476 L197.064516,360.533333 L7.93548387,360.533333 L7.93548387,39.6190476 Z M82,14.5269841 L123,14.5269841 C129.612903,14.5269841 129.612903,25.0920635 123,25.0920635 L82,25.0920635 C75.3870968,25.0920635 75.3870968,14.5269841 82,14.5269841 Z" id="Shape"></path>
            </g>
            <text id="Central" font-family="HelveticaNeue-Bold, Helvetica Neue" font-size="36" font-weight="bold" fill="#000000">
                <tspan x="133.342" y="532">Central</tspan>
            </text>
            <text id="Peripheral" font-family="HelveticaNeue-Bold, Helvetica Neue" font-size="36" font-weight="bold" fill="#000000">
                <tspan x="605.034" y="475">Peripheral</tspan>
            </text>
            <text id="Service" font-family="HelveticaNeue-Bold, Helvetica Neue" font-size="36" font-weight="bold" fill="#000000">
                <tspan x="630.316" y="606">Service</tspan>
            </text>
            <path id="Line-2" d="M690.483051,494.517064 L695.482936,494.483051 L695.499942,496.982994 L695.806,541.984 L707.805791,541.902022 L693.503401,570.999988 L678.806462,542.099297 L690.806,542.017 L690.483051,494.517064 Z" fill="#000000" fill-rule="nonzero"></path>
            <text id="Characteristic" font-family="HelveticaNeue-Bold, Helvetica Neue" font-size="36" font-weight="bold" fill="#000000">
                <tspan x="573.198" y="737">Characteristic</tspan>
            </text>
            <path id="Line-2-Copy" d="M691.233051,625.767064 L696.232936,625.733051 L696.249942,628.232994 L696.556,673.234 L708.555791,673.152022 L694.253401,702.249988 L679.556462,673.349297 L691.556,673.267 L691.233051,625.767064 Z" fill="#000000" fill-rule="nonzero"></path>
            <g id="noun_Headphones_1211259" transform="translate(515.000000, 56.000000)" fill="#000000" fill-rule="nonzero">
                <g id="Group">
                    <path d="M103.781624,232.644948 C102.274651,223.975914 94.3630478,218.322196 85.6979582,219.45294 L85.6979582,219.45294 C81.1770418,220.206769 77.7863546,224.729743 78.5398406,229.252717 L97.376992,345.719306 C98.1304781,350.24228 102.651394,353.634511 107.172311,352.880682 C115.8374,351.373024 121.488546,343.457819 120.358317,334.788785 L103.781624,232.644948 Z" id="Path"></path>
                    <path d="M270.678785,219.45294 C262.013695,217.945282 254.102092,223.975914 252.59512,232.644948 L236.018426,334.788785 C234.511454,343.457819 240.539343,351.373024 249.204432,352.880682 C253.725349,353.634511 258.246265,350.619195 258.999751,345.719306 L277.836902,229.252717 C278.590388,224.729743 275.576444,220.206769 270.678785,219.45294 Z" id="Path"></path>
                    <path d="M355.822709,187.79212 C355.822709,84.5175395 275.953187,0.465600296 178,0.465600296 C80.0468127,0.465600296 0.177290837,84.5175395 0.177290837,187.79212 C0.177290837,211.16082 4.32146414,233.775692 11.8563247,254.882905 C4.69820717,267.321084 1.30751992,282.020751 3.94472112,297.097332 L5.0749502,305.012537 C10.7260956,339.688673 43.125996,363.057374 77.7863546,357.780571 L77.7863546,357.780571 C83.814243,356.649827 87.5816733,351.373024 86.8281873,345.342391 L68.7445219,233.398777 C67.6142928,227.368145 62.3398904,223.599 56.312002,224.352829 C48.7771414,225.483572 41.9957669,228.121974 35.9678785,231.514205 C32.2004482,217.568367 30.3167331,202.868701 30.3167331,187.79212 C30.3167331,143.316206 48.0236554,102.986351 75.9026394,74.3408473 C79.6700697,77.7330781 84.5677291,79.6176507 89.4653884,79.6176507 C94.7397908,79.6176507 99.6374502,77.7330781 103.40488,73.9639328 C123.372261,53.9874629 149.744273,45.6953434 176.869771,45.6953434 C202.488297,45.6953434 227.353337,52.8567194 246.943974,70.5717021 C254.855578,77.7330781 266.911355,77.3561635 274.446215,69.817873 C305.339143,98.463377 324.553038,140.677804 324.553038,187.79212 C324.553038,202.491786 322.669323,217.191453 318.901892,231.13729 C312.874004,227.745059 306.092629,225.483572 298.934512,224.352829 C292.906624,223.222085 287.255478,227.368145 286.501992,233.398777 L268.418327,345.342391 C267.288098,351.373024 271.432271,357.026742 277.460159,357.780571 C312.120518,363.434289 344.520418,339.688673 350.171564,305.012537 L351.301793,297.097332 C353.938994,281.643836 350.548307,266.567255 343.013446,254.129076 C351.678536,233.021863 355.822709,210.783906 355.822709,187.79212 Z" id="Path"></path>
                </g>
            </g>
        </g>
    </g>
</svg>